<svg width="100" height="100" viewBox="0 0 100 100" fill="none" xmlns="http://www.w3.org/2000/svg">
<path d="M93.3672 76.0898L51.4336 99.625C50.543 100.125 49.457 100.125 48.5664 99.625L6.63281 76.0898C4.63867 74.9727 4.64258 72.0957 6.63281 70.9805L17.0625 65.127L45.6992 81.1992C48.3699 82.6998 51.634 82.6975 54.3008 81.1992L82.9375 65.127L93.3672 70.9805C95.3613 72.0977 95.3574 74.9746 93.3672 76.0898Z" fill="white"/>
<path d="M93.3672 47.4453L82.9375 41.5918L54.3008 57.6641C51.6348 59.1621 48.3691 59.1641 45.6992 57.6641L17.0625 41.5918L6.63281 47.4453C4.64258 48.5605 4.63867 51.4375 6.63281 52.5547L48.5664 76.0898C49.457 76.5898 50.543 76.5898 51.4336 76.0898L93.3672 52.5547C95.3574 51.4395 95.3613 48.5625 93.3672 47.4453ZM24.1016 56.4102C22.4824 56.4102 21.1719 55.0977 21.1719 53.4805C21.1719 51.8613 22.4824 50.5508 24.1016 50.5508C25.7188 50.5508 27.0312 51.8613 27.0312 53.4805C27.0312 55.0977 25.7188 56.4102 24.1016 56.4102ZM36.5762 63.666C34.957 63.666 33.6465 62.3535 33.6465 60.7363C33.6465 59.1172 34.957 57.8066 36.5762 57.8066C38.1934 57.8066 39.5059 59.1172 39.5059 60.7363C39.5059 62.3535 38.1934 63.666 36.5762 63.666ZM50 70.4629C48.3828 70.4629 47.0703 69.1523 47.0703 67.5332C47.0703 65.916 48.3828 64.6035 50 64.6035C51.6172 64.6035 52.9297 65.916 52.9297 67.5332C52.9297 69.1523 51.6172 70.4629 50 70.4629ZM63.4238 63.666C61.8066 63.666 60.4941 62.3535 60.4941 60.7363C60.4941 59.1172 61.8066 57.8066 63.4238 57.8066C65.043 57.8066 66.3535 59.1172 66.3535 60.7363C66.3535 62.3535 65.043 63.666 63.4238 63.666ZM75.8984 56.4102C74.2813 56.4102 72.9688 55.0977 72.9688 53.4805C72.9688 51.8613 74.2813 50.5508 75.8984 50.5508C77.5176 50.5508 78.8281 51.8613 78.8281 53.4805C78.8281 55.0977 77.5176 56.4102 75.8984 56.4102Z" fill="white"/>
<path d="M93.3672 29.0195L51.4336 52.5547C50.5428 53.0547 49.457 53.0547 48.5664 52.5547L6.63281 29.0195C4.63867 27.9023 4.64258 25.0254 6.63281 23.9102L48.5664 0.375C49.4572 -0.125 50.543 -0.125 51.4336 0.375L93.3672 23.9102C95.3613 25.0273 95.3574 27.9043 93.3672 29.0195Z" fill="white"/>
</svg>
