<svg width="54" height="55" viewBox="0 0 54 55" fill="none" xmlns="http://www.w3.org/2000/svg">
<rect x="0.75" y="0.75" width="52.5" height="53.5" stroke="#E0001A" stroke-width="1.5"/>
<path d="M40.791 36.654V34.3223" stroke="#E0001A" stroke-width="1.5" stroke-miterlimit="10" stroke-linecap="round" stroke-linejoin="round"/>
<path d="M40.79 34.3232H14V29.6598C14 28.3721 15.0165 27.3281 16.2703 27.3281H38.5196C39.7735 27.3281 40.79 28.3721 40.79 29.6598V34.3232Z" stroke="#E0001A" stroke-width="1.5" stroke-miterlimit="10" stroke-linecap="round" stroke-linejoin="round"/>
<path d="M27.3965 27.3275V24.9958C27.3965 23.708 26.38 22.6641 25.1261 22.6641H23.0828C21.829 22.6641 20.8125 23.708 20.8125 24.9958V27.3275" stroke="#E0001A" stroke-width="1.5" stroke-miterlimit="10" stroke-linecap="round" stroke-linejoin="round"/>
<path d="M33.9785 27.3275V24.9958C33.9785 23.708 32.962 22.6641 31.7082 22.6641H29.6649C28.411 22.6641 27.3945 23.708 27.3945 24.9958V27.3275" stroke="#E0001A" stroke-width="1.5" stroke-miterlimit="10" stroke-linecap="round" stroke-linejoin="round"/>
<path d="M14 36.654V34.3223" stroke="#E0001A" stroke-width="1.5" stroke-miterlimit="10" stroke-linecap="round" stroke-linejoin="round"/>
<path d="M16.2715 27.3268V22.6634C16.2715 20.0879 18.3044 18 20.8122 18H33.9801C36.4879 18 38.5208 20.0879 38.5208 22.6634V27.3268" stroke="#E0001A" stroke-width="1.5" stroke-miterlimit="10" stroke-linecap="round" stroke-linejoin="round"/>
</svg>
