<svg width="100" height="100" viewBox="0 0 100 100" fill="none" xmlns="http://www.w3.org/2000/svg">
<path d="M41.6667 26.2507C35.8334 16.6673 29.1667 8.33398 29.1667 8.33398C29.1667 8.33398 8.33337 34.1673 8.33337 45.834C8.33337 55.834 15.4167 64.584 25 66.2506C25 65.4173 25 64.1673 25 63.334C25 53.334 33.3334 38.334 41.6667 26.2507Z" fill="white"/>
<path d="M62.5 12.5C62.5 12.5 33.3334 47.9167 33.3334 63.3333C33.3334 78.75 46.25 91.6667 62.5 91.6667C78.75 91.6667 91.6667 79.1667 91.6667 63.3333C91.6667 47.5 62.5 12.5 62.5 12.5ZM82.9167 67.9167C82.9167 69.1667 82.0834 70.4167 81.6667 71.6667C80.8334 72.5 80.4167 73.75 79.5834 74.5833C78.75 75.4167 77.9167 76.25 77.0834 76.6667C75.4167 77.9167 73.3334 78.3333 72.0834 78.75C70.4167 79.1667 69.1667 78.75 68.3334 78.75C67.5 78.75 67.0834 78.3333 67.0834 78.3333C67.0834 78.3333 69.1667 76.25 70 75.4167C80 67.0833 78.3334 53.75 78.3334 53.75C78.3334 53.75 78.75 54.1667 79.5834 54.5833C80.4167 55.4167 81.25 56.25 82.0834 57.9167C82.9167 59.5833 83.75 61.6667 83.75 63.75C83.3334 65.4167 83.3334 66.6667 82.9167 67.9167Z" fill="white"/>
</svg>
