<svg width="100" height="100" viewBox="0 0 100 100" fill="none" xmlns="http://www.w3.org/2000/svg">
<path fill-rule="evenodd" clip-rule="evenodd" d="M96.4211 71.0014L64.2672 90.9699C61.151 92.8842 57.7438 93.3631 54.1186 92.392L25.9791 84.8506C25.5221 84.7301 25.0443 84.7936 24.6391 85.0271L10.8758 92.9746L0 74.1525L25.5844 59.3369C29.1785 57.2563 33.0633 55.5123 37.1664 56.8418C38.3818 57.2365 39.8256 57.7352 41.3525 58.2637C46.4527 60.0232 52.7994 62.2141 59.3123 63.6434C60.3303 63.8656 61.2027 64.5045 61.7637 65.4373C62.3973 66.4656 62.5738 67.7164 62.2623 68.8682C61.6805 71.0256 59.5096 72.3865 57.3178 71.9656C57.2867 71.9584 35.3172 66.0822 35.3172 66.0822C34.3822 65.8287 33.4162 66.3887 33.1566 67.3266C32.9074 68.2666 33.4684 69.2326 34.4031 69.484L56.1129 75.2988C60.9742 76.6045 64.9941 76.8311 69.9594 73.9359L86.3033 64.4191C93.2006 60.3992 97.9686 61.2822 99.485 63.8031C100.638 65.7328 99.9527 68.8231 96.4211 71.0014ZM66.2744 27.2805L48.7285 48.9752L50.5598 33.4086C50.56 33.4037 50.5602 33.3979 50.5613 33.3951L50.5617 33.3928C50.5596 33.3918 50.5568 33.3908 50.5561 33.3908H38.1375L54.7285 12.1416L53.8555 27.2805H66.2744ZM52.2074 7.02344C39.223 7.02344 28.6695 17.5793 28.6695 30.5541C28.6695 43.5301 39.2232 54.0857 52.2074 54.0857C65.1813 54.0857 75.735 43.5301 75.735 30.5541C75.735 17.5791 65.1813 7.02344 52.2074 7.02344Z" fill="white"/>
</svg>
