<svg width="54" height="55" viewBox="0 0 54 55" fill="none" xmlns="http://www.w3.org/2000/svg">
<rect x="0.75" y="0.75" width="52.5" height="53.5" stroke="#E0001A" stroke-width="1.5"/>
<path d="M38.5868 24.8477C37.3452 22.8229 36.1043 20.7976 34.8642 18.772C34.1708 17.6396 33.0301 17.0004 31.7024 17.0004H21.8295C20.5019 17.0004 19.3614 17.6395 18.668 18.7716C17.4344 20.7859 16.1999 22.7996 14.9658 24.8135" stroke="#E0001A" stroke-width="1.5" stroke-miterlimit="22.926" stroke-linecap="round" stroke-linejoin="round"/>
<path d="M40.4229 35.4747V37.3828C40.4229 38.2025 39.7522 38.873 38.9327 38.873H36.1667C35.3471 38.873 34.6765 38.2025 34.6765 37.3828V35.5364" stroke="#E0001A" stroke-width="1.5" stroke-miterlimit="22.926" stroke-linecap="round" stroke-linejoin="round"/>
<path d="M18.8586 35.4747V37.3828C18.8586 38.2025 18.1879 38.873 17.3683 38.873H14.6023C13.7828 38.873 13.1122 38.2025 13.1122 37.3828V35.4747" stroke="#E0001A" stroke-width="1.5" stroke-miterlimit="22.926" stroke-linecap="round" stroke-linejoin="round"/>
<path d="M15.8996 24.7851H37.6354C39.7833 24.7851 41.5352 26.4783 41.5352 28.5542V33.6209C41.5352 34.6419 40.6735 35.4746 39.6173 35.4746H13.9178C12.8615 35.4746 12 34.6419 12 33.6209V28.5542C12 26.4783 13.7517 24.7851 15.8996 24.7851Z" stroke="#E0001A" stroke-width="1.5" stroke-miterlimit="22.926" stroke-linecap="round" stroke-linejoin="round"/>
<path d="M13.8438 28.279C15.7078 28.4018 17.1903 29.9608 17.1903 31.8549V31.9785H12V30.0053C12 29.5089 12.1852 29.0817 12.5476 28.7424C12.91 28.4031 13.3485 28.2463 13.8438 28.279Z" stroke="#E0001A" stroke-width="1.5" stroke-miterlimit="22.926" stroke-linecap="round" stroke-linejoin="round"/>
<path d="M39.6912 28.279C37.8273 28.4018 36.3448 29.9608 36.3448 31.8549V31.9785H41.5351V30.0053C41.5351 29.5089 41.3498 29.0817 40.9875 28.7424C40.6251 28.4031 40.1866 28.2463 39.6912 28.279Z" stroke="#E0001A" stroke-width="1.5" stroke-miterlimit="22.926" stroke-linecap="round" stroke-linejoin="round"/>
<path d="M19.6001 28.2465H33.9352C33.5225 29.1419 33.1103 30.0378 32.6996 30.9341C32.3907 31.6084 31.7561 32.0156 31.0144 32.0156H22.5179C21.7765 32.0156 21.1422 31.6087 20.833 30.9348C20.422 30.0387 20.011 29.1426 19.6001 28.2465Z" stroke="#E0001A" stroke-width="1.5" stroke-miterlimit="22.926" stroke-linecap="round" stroke-linejoin="round"/>
</svg>
