<svg width="100" height="100" viewBox="0 0 100 100" fill="none" xmlns="http://www.w3.org/2000/svg">
<g clip-path="url(#clip0_5425_247)">
<path d="M9.17969 18.3594C14.2495 18.3594 18.3594 14.2495 18.3594 9.17969C18.3594 4.10989 14.2495 0 9.17969 0C4.10989 0 0 4.10989 0 9.17969C0 14.2495 4.10989 18.3594 9.17969 18.3594Z" fill="white"/>
<path d="M63.7065 55.6633C67.4627 55.6633 70.5078 52.6182 70.5078 48.8619C70.5078 45.1056 67.4627 42.0605 63.7065 42.0605C59.9502 42.0605 56.9051 45.1056 56.9051 48.8619C56.9051 52.6182 59.9502 55.6633 63.7065 55.6633Z" fill="white"/>
<path d="M92.184 51.9227C96.1098 47.1312 98.2422 41.1645 98.2422 34.8295C98.2422 20.0557 86.4139 8.03613 71.875 8.03613C65.8779 8.03613 60.0539 10.1416 55.4109 13.9076C51.9447 9.28203 46.475 6.44531 40.625 6.44531C30.8367 6.44531 22.7943 14.1805 22.1166 23.9467C22.0359 23.9459 21.9557 23.9453 21.875 23.9453C9.81309 23.9453 0 33.8236 0 45.9658C0 50.4307 1.35332 54.7463 3.91387 58.4457C5.79785 61.168 8.22617 63.4125 11.0352 65.0471C10.0719 67.5732 9.57031 70.2793 9.57031 73.0111C9.57031 85.1533 19.2957 95.0316 31.25 95.0316C38.0115 95.0316 44.2422 91.8639 48.2877 86.6404C53.3701 94.8061 62.2787 100 71.875 100C79.3451 100 86.4 97.0062 91.74 91.5701C97.0666 86.1478 100 78.9918 100 71.4205C100 64.2037 97.1824 57.2461 92.184 51.9227ZM47.7939 57.615C47.458 58.0156 47.0926 58.3926 46.7078 58.7354C44.7434 60.485 42.2229 61.4096 39.4186 61.4096C32.4375 61.4096 26.7578 55.7299 26.7578 48.7488C26.7578 41.7678 32.4375 36.0881 39.4186 36.0881C41.9555 36.0881 44.4039 36.8365 46.4994 38.2521C47.8402 39.158 48.1926 40.9791 47.2869 42.3199C46.3809 43.6605 44.5596 44.0129 43.2191 43.1074C42.0961 42.3486 40.7818 41.9477 39.4186 41.9477C35.6684 41.9477 32.6172 44.9988 32.6172 48.749C32.6172 52.4992 35.6684 55.5504 39.4186 55.5504C40.7826 55.5504 41.924 55.15 42.8107 54.3602C42.984 54.2059 43.15 54.0346 43.3039 53.8508C44.3436 52.6109 46.1914 52.4486 47.4313 53.4881C48.6711 54.5272 48.8334 56.3752 47.7939 57.615ZM51.0457 48.8627C51.0457 41.8816 56.7254 36.202 63.7064 36.202C70.6875 36.202 76.3672 41.8816 76.3672 48.8627C76.3672 55.8438 70.6875 61.5234 63.7064 61.5234C56.7254 61.5234 51.0457 55.8438 51.0457 48.8627ZM81.2867 82.4377C79.0715 82.4656 77.4568 82.4783 76.2688 82.4783C73.2295 82.4783 72.9783 82.3945 72.5863 82.2639C71.6574 81.9543 70.933 81.2176 70.6486 80.293C70.1723 78.7443 70.9502 77.7256 71.9352 76.4359C72.7008 75.4334 74.1262 73.5672 76.5168 70.1514C77.2301 69.1322 77.5264 68.4279 77.6473 67.9912L77.6686 67.8238C77.6076 67.3553 77.2059 66.9922 76.7211 66.9922C76.2045 66.9922 75.8584 67.3781 75.7836 67.7594C75.4717 69.3471 73.9322 70.3814 72.3441 70.0695C70.7564 69.7576 69.7223 68.218 70.034 66.6301C70.6598 63.4447 73.4721 61.1328 76.7213 61.1328C80.4791 61.1328 83.5361 64.1898 83.5361 67.9477C83.5361 68.0719 83.5281 68.1959 83.5125 68.3189L83.4375 68.9062C83.425 69.0039 83.4076 69.1008 83.3854 69.1967C83.0682 70.5648 82.3916 71.9762 81.3172 73.5111C80.4721 74.7188 79.7436 75.7389 79.1189 76.6002C79.8148 76.5945 80.525 76.5871 81.2133 76.5785C81.2258 76.5785 81.2383 76.5783 81.2508 76.5783C82.8516 76.5783 84.1594 77.8658 84.1795 79.4713C84.1998 81.0893 82.9047 82.4172 81.2867 82.4377Z" fill="white"/>
</g>
<defs>
<clipPath id="clip0_5425_247">
<rect width="100" height="100" fill="white"/>
</clipPath>
</defs>
</svg>
