<svg width="54" height="55" viewBox="0 0 54 55" fill="none" xmlns="http://www.w3.org/2000/svg">
<rect x="0.75" y="0.75" width="52.5" height="53.5" stroke="#E0001A" stroke-width="1.5"/>
<path d="M39.6359 21.3116L28.5329 14.3301C28.1927 14.1204 27.7946 14 27.3689 14C26.9432 14 26.545 14.1204 26.2048 14.3301L15.1019 21.3116C14.4417 21.7183 14 22.4605 14 23.3086V41.5186H18.5318V27.5557C18.5318 26.2704 19.5463 25.2285 20.7977 25.2285H33.94C35.1914 25.2285 36.2059 26.2704 36.2059 27.5557V41.5186H40.7377V23.3086C40.7377 22.4605 40.296 21.7183 39.6359 21.3116Z" stroke="#E0001A" stroke-width="1.5" stroke-miterlimit="10" stroke-linecap="round" stroke-linejoin="round"/>
<path d="M23.0645 29.8828H36.2067" stroke="#E0001A" stroke-width="1.5" stroke-miterlimit="10" stroke-linecap="round" stroke-linejoin="round"/>
<path d="M23.0645 34.5371H36.2067" stroke="#E0001A" stroke-width="1.5" stroke-miterlimit="10" stroke-linecap="round" stroke-linejoin="round"/>
<path d="M18.5314 39.1914H36.2055" stroke="#E0001A" stroke-width="1.5" stroke-miterlimit="10" stroke-linecap="round" stroke-linejoin="round"/>
</svg>
