<svg width="99" height="99" viewBox="0 0 99 99" fill="none" xmlns="http://www.w3.org/2000/svg">
<rect width="99" height="99" fill="#E0001A"/>
<path d="M30.152 61.8443C28.2654 58.4882 27.1895 54.6154 27.1895 50.4912C27.1895 37.6764 37.6746 27.1914 50.4893 27.1914C63.3041 27.1914 73.7891 37.6764 73.7891 50.4912C73.7891 63.3059 63.3041 73.791 50.4893 73.791C46.3651 73.791 42.4923 72.715 39.1362 70.8285L27.1895 73.791L30.152 61.8443Z" stroke="white" stroke-width="2" stroke-miterlimit="10" stroke-linecap="round" stroke-linejoin="round"/>
<path d="M47.7592 53.2192C46.7975 52.2544 42.9376 47.971 44.3422 46.5664C44.7282 46.1804 46.2718 45.126 46.874 44.5237C48.9249 42.4729 46.5719 39.9337 45.063 38.4248C44.9397 38.3015 42.617 35.8017 39.5333 38.8855C34.0201 44.3986 41.8786 54.2841 44.2747 56.7037C46.6943 59.1 56.5798 66.9584 62.093 61.4452C65.1768 58.3614 62.6769 56.0387 62.5536 55.9155C61.0448 54.4066 58.5055 52.0536 56.4547 54.1045C55.8526 54.7067 54.7982 56.2502 54.412 56.6363C53.0075 58.0409 48.724 54.181 47.7592 53.2192Z" stroke="white" stroke-width="2" stroke-miterlimit="10"/>
</svg>
