<svg width="99" height="99" viewBox="0 0 99 99" fill="none" xmlns="http://www.w3.org/2000/svg">
<rect width="99" height="99" fill="#E0001A"/>
<mask id="mask0_5139_208" style="mask-type:luminance" maskUnits="userSpaceOnUse" x="21" y="23" width="55" height="55">
<path d="M75.2412 23.7598H21.7812V77.2198H75.2412V23.7598Z" fill="white"/>
<path d="M25.9578 45.76V45.1683C25.9578 35.6686 33.6864 27.94 43.1861 27.94C52.1117 27.94 59.4731 34.7627 60.3304 43.4666L64.5166 47.2854C64.5648 46.7702 64.591 46.2613 64.591 45.76V45.1683C64.591 33.3657 54.9888 23.7634 43.1861 23.7634C31.3835 23.7634 21.7812 33.3657 21.7812 45.1683V45.76C21.7812 51.7292 25.2035 58.685 31.9531 66.4342C36.8461 72.052 41.6708 75.9691 41.8738 76.1331L43.1861 77.1934V71.7656C38.9541 68.0575 25.9578 55.8468 25.9578 45.76Z" fill="white"/>
<path d="M62.2922 68.7656H56.0273V62.5008H62.2922V68.7656Z" fill="white"/>
</mask>
<g mask="url(#mask0_5139_208)">
<mask id="mask1_5139_208" style="mask-type:luminance" maskUnits="userSpaceOnUse" x="21" y="23" width="55" height="55">
<path d="M21.7812 23.7607H75.2412V77.2207H21.7812V23.7607Z" fill="white"/>
</mask>
<g mask="url(#mask1_5139_208)">
<path d="M25.9578 45.7542V45.1625C25.9578 35.6628 33.6864 27.9341 43.1861 27.9341C52.1117 27.9341 59.4731 34.7569 60.3304 43.4607L64.5166 47.2796C64.5648 46.7644 64.591 46.2555 64.591 45.7542V45.1625C64.591 33.3598 54.9888 23.7576 43.1861 23.7576C31.3835 23.7576 21.7812 33.3598 21.7812 45.1625V45.7542C21.7812 51.7233 25.2035 58.6792 31.9531 66.4284C36.8461 72.0461 41.6708 75.9632 41.8738 76.1273L43.1861 77.1875V71.7597C38.9541 68.0517 25.9578 55.841 25.9578 45.7542Z" fill="white"/>
<path d="M62.2922 68.7637H56.0273V62.4988H62.2922V68.7637Z" fill="white"/>
<path d="M36.3984 45.1662C36.3984 41.418 39.4371 38.3793 43.1854 38.3793C46.9336 38.3793 49.9723 41.418 49.9723 45.1662C49.9723 48.9145 46.9336 51.9531 43.1854 51.9531C39.4371 51.9531 36.3984 48.9145 36.3984 45.1662Z" stroke="white" stroke-width="2" stroke-miterlimit="10" stroke-linecap="round" stroke-linejoin="round"/>
<path d="M69.2951 60.2012V71.5589C69.2951 73.5327 67.6951 75.1328 65.7212 75.1328H52.4977C50.524 75.1328 48.9238 73.5327 48.9238 71.5589V60.2012" stroke="white" stroke-width="2" stroke-miterlimit="10"/>
<path d="M72.4205 62.9746L59.1077 50.8297L45.7949 62.9746" stroke="white" stroke-width="2" stroke-miterlimit="10" stroke-linecap="square"/>
</g>
</g>
</svg>
