<svg width="54" height="55" viewBox="0 0 54 55" fill="none" xmlns="http://www.w3.org/2000/svg">
<rect x="0.75" y="0.75" width="52.5" height="53.5" stroke="#E0001A" stroke-width="1.5"/>
<path d="M29.6653 32.0201V39.1828C29.6653 40.4705 28.6488 41.5145 27.395 41.5145H16.2703C15.0165 41.5145 14 40.4705 14 39.1828V27.7575C14 26.4697 15.0165 25.4258 16.2703 25.4258H23.2445" stroke="#E0001A" stroke-width="1.5" stroke-miterlimit="10" stroke-linecap="round" stroke-linejoin="round"/>
<path d="M20.584 14H17.4055C15.5247 14 14 15.5659 14 17.4975V20.7619" stroke="#E0001A" stroke-width="1.5" stroke-miterlimit="10" stroke-linecap="round" stroke-linejoin="round"/>
<path d="M25.125 14H29.6657" stroke="#E0001A" stroke-width="1.5" stroke-miterlimit="10" stroke-linecap="round" stroke-linejoin="round"/>
<path d="M34.2051 14H37.3835C39.2644 14 40.7891 15.5659 40.7891 17.4975V20.7619" stroke="#E0001A" stroke-width="1.5" stroke-miterlimit="10" stroke-linecap="round" stroke-linejoin="round"/>
<path d="M40.7891 34.752V38.0163C40.7891 39.948 39.2644 41.5139 37.3835 41.5139H34.2051" stroke="#E0001A" stroke-width="1.5" stroke-miterlimit="10" stroke-linecap="round" stroke-linejoin="round"/>
<path d="M40.7891 25.4258V30.0892" stroke="#E0001A" stroke-width="1.5" stroke-miterlimit="10" stroke-linecap="round" stroke-linejoin="round"/>
<path d="M21.25 34.0704L35.5854 19.3477" stroke="#E0001A" stroke-width="1.5" stroke-miterlimit="10" stroke-linecap="round" stroke-linejoin="round"/>
<path d="M20.584 31.2539V34.7514H23.9895" stroke="#E0001A" stroke-width="1.5" stroke-miterlimit="10" stroke-linecap="round" stroke-linejoin="round"/>
<path d="M32.8438 18.6641H36.2493V22.1616" stroke="#E0001A" stroke-width="1.5" stroke-miterlimit="10" stroke-linecap="round" stroke-linejoin="round"/>
</svg>
