<svg width="100" height="100" viewBox="0 0 100 100" fill="none" xmlns="http://www.w3.org/2000/svg">
<path d="M50.003 3.12518C43.1077 3.12518 36.5494 4.60968 30.6488 7.28777C29.8411 7.6545 29.5001 8.61911 29.8981 9.41186L32.6904 15.0058C33.0653 15.757 33.9669 16.0777 34.7321 15.7321C39.3962 13.6495 44.5586 12.5032 50.003 12.5032C70.7322 12.5032 87.5 29.271 87.5 50.0002C87.5 57.7982 85.0998 65.0042 81.0303 71.0054L76.1047 66.0769C75.7682 65.7397 75.2963 65.5748 74.823 65.6279C74.0334 65.7195 73.4384 66.3895 73.4406 67.1843V84.3719C73.4374 85.2348 74.134 85.9371 74.997 85.9406H92.1814C93.5853 85.9524 94.2898 84.249 93.2892 83.2643L87.7503 77.7252C93.4647 69.9566 96.878 60.376 96.878 50C96.878 24.1302 75.8729 3.12518 50.003 3.12518ZM7.80945 14.0596C6.4199 14.0601 5.72215 15.7382 6.70166 16.7238L12.2437 22.2658C6.52835 30.0351 3.12805 39.6224 3.12805 50.0002C3.12805 75.87 24.1332 96.8752 50.003 96.8752C56.8985 96.8752 63.4567 95.3784 69.3573 92.7003C70.1639 92.3324 70.5033 91.3683 70.105 90.5764L67.3035 84.9825C66.9289 84.2379 66.036 83.9184 65.2741 84.2562C60.6099 86.3388 55.4475 87.4971 50.003 87.4971C29.2739 87.4971 12.5061 70.7293 12.5061 50.0002C12.5061 42.205 14.8921 34.9903 18.9575 28.9888L23.9014 33.9204C24.887 34.8999 26.565 34.2022 26.5655 32.8128V15.6283C26.5687 14.7606 25.8646 14.0563 24.997 14.0596H7.80945ZM53.0487 23.4346C52.539 23.4582 52.0731 23.7328 51.8005 24.1639L33.0597 53.8515C32.4027 54.8889 33.1441 56.244 34.372 56.2503H46.7499L45.3186 74.8782C45.2038 76.4907 47.3137 77.1948 48.1903 75.8364L66.9464 46.1458C67.6071 45.1026 66.8538 43.7412 65.6189 43.747H53.244L54.6845 25.1191C54.7591 24.1791 53.9906 23.386 53.0487 23.4346Z" fill="white"/>
</svg>
